HIERARCHY
ROOT hip
{
	OFFSET 0.000000 0.000000 0.000000
	CHANNELS 6 Xposition Yposition Zposition Xrotation Zrotation Yrotation 
	JOINT abdomen
	{
		OFFSET 0.000000 3.422050 0.000000
		CHANNELS 3 Xrotation Zrotation Yrotation 
		JOINT chest
		{
			OFFSET 0.000000 8.486693 -0.684411
			CHANNELS 3 Xrotation Zrotation Yrotation 
			JOINT neck
			{
				OFFSET 0.000000 10.266162 -0.273764
				CHANNELS 3 Xrotation Zrotation Yrotation 
				JOINT head
				{
					OFFSET 0.000000 3.148285 0.000000
					CHANNELS 3 Xrotation Zrotation Yrotation 
					End Site
					{
						OFFSET 0.000000 3.148289 0.000000
					}
				}
			}
			JOINT lCollar
			{
				OFFSET 3.422053 6.707223 -0.821293
				CHANNELS 3 Yrotation Zrotation Xrotation 
				JOINT lShldr
				{
					OFFSET 3.285171 0.000000 0.000000
					CHANNELS 3 Zrotation Yrotation Xrotation 
					JOINT lForeArm
					{
						OFFSET 10.129278 0.000000 0.000000
						CHANNELS 3 Yrotation Zrotation Xrotation 
						JOINT lHand
						{
							OFFSET 8.486692 0.000000 0.000000
							CHANNELS 3 Zrotation Yrotation Xrotation 
							End Site
							{
								OFFSET 4.106464 0.000000 0.000000
							}
						}
					}
				}
			}
			JOINT rCollar
			{
				OFFSET -3.558935 6.707223 -0.821293
				CHANNELS 3 Yrotation Zrotation Xrotation 
				JOINT rShldr
				{
					OFFSET -3.148289 0.000000 0.000000
					CHANNELS 3 Zrotation Yrotation Xrotation 
					JOINT rForeArm
					{
						OFFSET -10.266159 0.000000 0.000000
						CHANNELS 3 Yrotation Zrotation Xrotation 
						JOINT rHand
						{
							OFFSET -8.349810 0.000000 0.000000
							CHANNELS 3 Zrotation Yrotation Xrotation 
							End Site
							{
								OFFSET -4.106464 0.000000 0.000000
							}
						}
					}
				}
			}
		}
	}
	JOINT lThigh
	{
		OFFSET 5.338403 -1.642589 1.368821
		CHANNELS 3 Xrotation Zrotation Yrotation 
		JOINT lShin
		{
			OFFSET -2.053232 -20.121670 0.000000
			CHANNELS 3 Xrotation Zrotation Yrotation 
			JOINT lFoot
			{
				OFFSET 0.000000 -19.300380 -1.231939
				CHANNELS 3 Xrotation Yrotation Zrotation 
				End Site
				{
					OFFSET 0.000000 -2.463878 4.653993
				}
			}
		}
	}
	JOINT rThigh
	{
		OFFSET -5.338403 -1.642589 1.368821
		CHANNELS 3 Xrotation Zrotation Yrotation 
		JOINT rShin
		{
			OFFSET 2.053232 -20.121670 0.000000
			CHANNELS 3 Xrotation Zrotation Yrotation 
			JOINT rFoot
			{
				OFFSET 0.000000 -19.300380 -1.231939
				CHANNELS 3 Xrotation Yrotation Zrotation 
				End Site
				{
					OFFSET 0.000000 -2.463878 4.653993
				}
			}
		}
	}
}
MOTION
Frames: 15
Frame Time: 0.049989
0.000000 43.528500 0.000000 0.000000 0.000000 0.000000 0.000000 0.000000 0.000000 0.000000 0.000000 0.000000 0.000000 0.000000 0.000000 0.000000 0.000000 0.000000 0.000000 0.000000 0.000000 0.000000 0.000000 0.000000 0.000000 0.000000 0.000000 0.000000 0.000000 0.000000 0.000000 0.000000 0.000000 0.000000 0.000000 0.000000 0.000000 0.000000 0.000000 0.000000 0.000000 0.000000 0.000000 0.000000 0.000000 0.000000 0.000000 0.000000 0.000000 0.000000 0.000000 0.000000 0.000000 0.000000 0.000000 0.000000 0.000000 0.000000 0.000000 0.000000 
-18.001392 8.994522 -13.003193 90.001877 0.003709 -179.996292 9.648467 -0.743573 -0.608503 20.577063 -0.642160 -0.505768 25.997908 0.000000 0.000000 -0.138134 0.000215 0.180100 -5.003078 -17.454964 -1.177541 -43.627228 27.572992 -0.562650 -30.729626 -34.580296 47.643658 33.996082 -0.001525 24.199104 4.999357 17.451466 -1.176811 43.623814 -27.576344 -0.563155 30.726877 34.575382 47.644894 -34.000423 -0.000964 24.200150 -13.885276 13.038016 0.882344 56.114582 2.452267 -0.529972 32.509850 -2.573077 0.952554 -13.884947 -13.041934 -0.885443 56.114681 -2.453708 0.525238 32.509842 2.568740 -0.954932 
-18.001392 9.045354 -13.269831 90.000000 0.003709 -179.996292 10.416881 -0.743405 -0.608307 19.273020 -0.642295 -0.505703 25.107206 0.000000 0.000000 -0.274167 -0.008937 0.361596 -4.729817 -16.586374 -0.215370 -44.029926 28.171122 -0.678900 -31.445721 -35.554241 47.243382 34.337532 -0.169417 24.748850 4.719665 16.567356 -0.217452 44.013390 -28.140493 -0.676587 31.363478 35.469566 47.288982 -34.300396 0.244896 24.665121 -14.345265 13.060406 0.802243 57.258804 2.614329 -0.488130 31.790569 -2.685097 0.854166 -14.345181 -13.065219 -0.805737 57.258949 -2.617166 0.483206 31.791420 2.680323 -0.858145 
-18.001392 9.096185 -13.536469 90.000008 0.003709 -179.996292 11.185678 -0.743239 -0.608109 17.967106 -0.642428 -0.505634 24.214233 0.000000 0.000000 -0.410250 -0.017661 0.543143 -4.472610 -15.712354 0.739544 -44.436481 28.768768 -0.800652 -32.179951 -36.525009 46.822548 34.677494 -0.340639 25.297804 4.456286 15.677693 0.734427 44.406464 -28.704153 -0.795040 32.014782 36.361221 46.916374 -34.598457 0.493253 25.128950 -14.805405 13.082172 0.721940 58.404579 2.775704 -0.442999 31.070715 -2.795923 0.754324 -14.805564 -13.087875 -0.725821 58.404762 -2.779933 0.437856 31.072433 2.790735 -0.759913 
-18.001392 9.147017 -13.803107 90.000000 0.003709 -179.996292 11.954783 -0.743075 -0.607908 16.659662 -0.642560 -0.505563 23.319080 0.000000 0.000000 -0.546382 -0.025954 0.724737 -4.231321 -14.833384 1.687453 -44.846981 29.365828 -0.928017 -32.933254 -37.492146 46.380268 35.015915 -0.515161 25.845907 4.209074 14.782968 1.679095 44.803120 -29.267244 -0.918608 32.681458 37.249996 46.526402 -34.894581 0.744077 25.591618 -15.265679 13.103312 0.641441 59.551689 2.936292 -0.394593 30.350336 -2.905528 0.653049 -15.266085 -13.109913 -0.645702 59.551933 -2.941911 0.389203 30.352913 2.899945 -0.660254 
-18.001394 9.197847 -14.069746 90.000000 0.003709 -179.996292 12.724135 -0.742915 -0.607705 15.351023 -0.642691 -0.505489 22.421858 0.000000 0.000000 -0.682558 -0.033817 0.906378 -4.005809 -13.949938 2.628613 -45.261570 29.962231 -1.061113 -33.706585 -38.455166 45.915627 35.352734 -0.692953 26.393122 3.977882 13.883659 2.616821 45.203503 -29.829710 -1.047388 33.364227 38.135548 46.118385 -35.188763 0.997331 26.053114 -15.726075 13.123828 0.560755 60.699924 3.095994 -0.342932 29.629477 -3.013881 0.550362 -15.726726 -13.131322 -0.565388 60.700218 -3.102997 0.337268 29.632933 3.007926 -0.559192 
-18.001394 9.248679 -14.336384 90.000000 0.003709 -179.996292 13.493660 -0.742757 -0.607500 14.041527 -0.642819 -0.505411 21.522667 0.000000 0.000000 -0.818778 -0.041249 1.088061 -3.795935 -13.062487 3.563282 -45.680367 30.557884 -1.200052 -34.500919 -39.413551 45.427612 35.687912 -0.873981 26.939398 3.762561 12.980249 3.547878 45.607700 -30.391466 -1.181480 34.063839 39.017502 45.691582 -35.480953 1.252977 26.513409 -16.186571 13.143707 0.479890 61.849079 3.254710 -0.288040 28.908226 -3.120960 0.446287 -16.187479 -13.152106 -0.484887 61.849419 -3.263093 0.282072 28.912554 3.114654 -0.456747 
-18.001394 9.299511 -14.603023 90.000000 0.003709 -179.996292 14.263287 -0.742601 -0.607293 12.731519 -0.642947 -0.505331 20.621611 0.000000 0.000000 -0.955038 -0.048250 1.269785 -3.601558 -12.171514 4.491721 -46.103504 31.152704 -1.344956 -35.317348 -40.366798 44.915203 36.021400 -1.058212 27.484690 3.562963 12.073236 4.472540 46.015820 -30.952440 -1.320982 34.781067 39.895473 45.245239 -35.771137 1.510981 26.972469 -16.647154 13.162956 0.398853 62.998913 3.412344 -0.229942 28.186596 -3.226732 0.340846 -16.648312 -13.172256 -0.404206 62.999321 -3.422101 0.223642 28.191813 3.220098 -0.352944 
-18.001394 9.350342 -14.869660 90.000008 0.003709 -179.996292 15.032951 -0.742449 -0.607084 11.421340 -0.643072 -0.505248 19.718800 0.000000 0.000000 -1.091337 -0.054819 1.451548 -3.422532 -11.277477 5.414190 -46.531120 31.746614 -1.495950 -36.156967 -41.314346 44.377304 36.353165 -1.245613 28.028961 3.378936 11.163087 5.391081 46.427994 -31.512571 -1.466005 35.516743 40.769089 44.778553 -36.059284 1.771306 27.430294 -17.107807 13.181571 0.317652 64.149216 3.568797 -0.168671 27.464684 -3.331175 0.234064 -17.109226 -13.191780 -0.323354 64.149689 -3.579922 0.162011 27.470781 3.324234 -0.247805 
-18.001394 9.401174 -15.136299 90.000000 0.003709 -179.996292 15.802579 -0.742299 -0.606872 10.111332 -0.643195 -0.505162 18.814329 0.000000 0.000000 -1.227671 -0.060957 1.633346 -3.258715 -10.380855 6.330948 -46.963348 32.339520 -1.653159 -37.020927 -42.255653 43.812778 36.683136 -1.436144 28.572153 3.210333 10.250289 6.303774 46.844318 -32.071762 -1.616653 36.271702 41.637920 44.290680 -36.345379 2.033912 27.886862 -17.568516 13.199549 0.236296 65.299759 3.723975 -0.104260 26.742523 -3.434262 0.125965 -17.570192 -13.210664 -0.242338 65.300308 -3.736459 0.097214 26.749514 3.427038 -0.141354 
-18.001394 9.452005 -15.402937 90.000000 0.003709 -179.996292 16.572105 -0.742152 -0.606659 8.801836 -0.643316 -0.505073 17.908318 0.000000 0.000000 -1.364039 -0.066663 1.815179 -3.109964 -9.482111 7.242256 -47.400333 32.931320 -1.816722 -37.910469 -43.190132 43.220444 37.011288 -1.629773 29.114235 3.057003 9.335320 7.210892 47.264927 -32.629948 -1.773040 37.046856 42.501560 43.780743 -36.629398 2.298764 28.342148 -18.029263 13.216891 0.154791 66.450348 3.877784 -0.036750 26.020178 -3.535967 0.016575 -18.031204 -13.228915 -0.161166 66.450974 -3.891619 0.029288 26.028055 3.528481 -0.033618 
-18.001396 9.502836 -15.669576 90.000008 0.003709 -179.996292 17.341450 -0.742008 -0.606444 7.493195 -0.643436 -0.504981 17.000875 0.000000 0.000000 -1.500437 -0.071936 1.997041 -2.976135 -8.581711 8.148373 -47.842224 33.521942 -1.986771 -38.826839 -44.117168 42.599022 37.337570 -1.826460 29.655163 2.918799 8.418648 8.112709 47.689945 -33.187057 -1.935279 37.843132 43.359592 43.247845 -36.911316 2.565823 28.796146 -18.490028 13.233591 0.073146 67.600739 4.030133 0.033819 25.297710 -3.636269 -0.094081 -18.492231 -13.246525 -0.079846 67.601440 -4.045308 -0.041723 25.306484 3.628543 0.075380 
-18.001396 9.553668 -15.936213 90.000000 0.003709 -179.996292 18.110563 -0.741867 -0.606227 6.185751 -0.643552 -0.504887 16.092112 0.000000 0.000000 -1.636864 -0.076777 2.178933 -2.857087 -7.680111 9.049558 -48.289173 34.111290 -2.163445 -39.771408 -45.036163 41.947227 37.661934 -2.026165 30.194891 2.795573 7.500748 9.009496 48.119484 -33.742989 -2.103488 38.661491 44.211533 42.690994 -37.191113 2.835048 29.248835 -18.950798 13.249647 -0.008631 68.750717 4.180929 0.107400 24.575171 -3.735140 -0.205976 -18.953276 -13.263499 0.001614 68.751503 -4.197436 -0.115773 24.584848 3.727199 0.185613 
-18.001396 9.604499 -16.202852 90.000000 0.003709 -179.996292 18.879353 -0.741729 -0.606008 4.879838 -0.643667 -0.504791 15.182133 0.000000 0.000000 -1.773317 -0.081185 2.360850 -2.752678 -6.777773 9.946069 -48.741341 34.699268 -2.346889 -40.745533 -45.946442 41.263683 37.984344 -2.228849 30.733389 2.687181 6.582085 9.901524 48.553692 -34.297691 -2.277788 39.502968 45.056946 42.109215 -37.468781 3.106402 29.700203 -19.411562 13.265063 -0.090531 69.900032 4.330084 0.183944 23.852619 -3.832560 -0.319083 -19.414309 -13.279831 0.083206 69.900925 -4.347912 -0.192814 23.863201 3.824427 0.297053 
-18.001396 9.655331 -16.469490 90.000000 0.003709 -179.996292 19.647768 -0.741594 -0.605787 3.575795 -0.643779 -0.504692 14.271057 0.000000 0.000000 -1.909793 -0.085160 2.542791 -2.662768 -5.875145 10.838157 -49.198872 35.285786 -2.537254 -41.750652 -46.847324 40.546970 38.304768 -2.434472 31.270607 2.593477 5.663118 10.789056 48.992687 -34.851063 -2.458301 40.368614 45.895340 41.501457 -37.744270 3.379844 30.150217 -19.872297 13.279836 -0.172548 71.048515 4.477515 0.263398 23.130125 -3.928507 -0.433374 -19.875320 -13.295521 0.164922 71.049484 -4.496650 -0.272790 23.141609 3.920203 0.409675 
